HIERARCHY
ROOT Hips
{
	OFFSET 0.00 0.00 0.00
	CHANNELS 6 Xposition Yposition Zposition Xrotation Yrotation Zrotation
	JOINT Spine
	{
		OFFSET 0.00000 4.35446 0.00000
		CHANNELS 3 Xrotation Yrotation Zrotation
		JOINT Head
		{
			OFFSET 0.00000 16.58177 0.00000
			CHANNELS 3 Xrotation Yrotation Zrotation
			End Site
			{
				OFFSET 0.00000 4.52755 0.00000
			}
		}
		JOINT LeftShoulder
		{
			OFFSET 0.00000 12.90370 0.00000
			CHANNELS 3 Xrotation Yrotation Zrotation
			JOINT LeftArm
			{
				OFFSET 6.94203 0.00000 0.00000
				CHANNELS 3 Xrotation Yrotation Zrotation
				JOINT LeftForeArm
				{
					OFFSET 11.01039 0.00000 0.00000
					CHANNELS 3 Yrotation Zrotation Xrotation
					JOINT LeftHand
					{
						OFFSET 8.05499 0.00000 0.00000
						CHANNELS 3 Xrotation Yrotation Zrotation
						JOINT LeftHandThumb1
						{
							OFFSET 0.00000 0.00000 0.00000
							CHANNELS 3 Xrotation Zrotation Yrotation
							End Site
							{
								OFFSET 0.00000 0.00000 3.93700
							}
						}
						End Site
						{
							OFFSET 3.93700 0.00000 0.00000
						}
					}
				}
			}
		}
		JOINT RightShoulder
		{
			OFFSET 0.00000 12.90370 0.00000
			CHANNELS 3 Xrotation Yrotation Zrotation
			JOINT RightArm
			{
				OFFSET -6.94203 0.00000 0.00000
				CHANNELS 3 Xrotation Yrotation Zrotation
				JOINT RightForeArm
				{
					OFFSET -11.01039 0.00000 0.00000
					CHANNELS 3 Yrotation Zrotation Xrotation
					JOINT RightHand
					{
						OFFSET -8.05499 0.00000 0.00000
						CHANNELS 3 Xrotation Yrotation Zrotation
						JOINT RightHandThumb1
						{
							OFFSET 0.00000 0.00000 0.00000
							CHANNELS 3 Xrotation Zrotation Yrotation
							End Site
							{
								OFFSET 0.00000 0.00000 3.93700
							}
						}
						End Site
						{
							OFFSET -3.93700 0.00000 0.00000
						}
					}
				}
			}
		}
	}
	JOINT LeftUpLeg
	{
		OFFSET 4.29108 0.00000 0.00000
		CHANNELS 3 Xrotation Yrotation Zrotation
		JOINT LeftLeg
		{
			OFFSET 0.00000 -17.03996 0.00000
			CHANNELS 3 Xrotation Yrotation Zrotation
			JOINT LeftFoot
			{
				OFFSET 0.00000 -16.93974 0.00000
				CHANNELS 3 Xrotation Yrotation Zrotation
				JOINT LeftToeBase
				{
					OFFSET 0.00000 -1.35493 5.05666
					CHANNELS 3 Xrotation Yrotation Zrotation
					End Site
					{
						OFFSET 0.00000 0.00000 2.95275
					}
				}
			}
		}
	}
	JOINT RightUpLeg
	{
		OFFSET -4.29108 0.00000 0.00000
		CHANNELS 3 Xrotation Yrotation Zrotation
		JOINT RightLeg
		{
			OFFSET 0.00000 -17.03996 0.00000
			CHANNELS 3 Xrotation Yrotation Zrotation
			JOINT RightFoot
			{
				OFFSET 0.00000 -16.93974 0.00000
				CHANNELS 3 Xrotation Yrotation Zrotation
				JOINT RightToeBase
				{
					OFFSET 0.00000 -1.35493 5.05666
					CHANNELS 3 Xrotation Yrotation Zrotation
					End Site
					{
						OFFSET 0.00000 0.00000 2.95275
					}
				}
			}
		}
	}
}
MOTION
Frames: 7
Frame Time: 0.008333
 -3.9848 35.1842 -13.8859 -10.0584 -19.6153 -6.6737 8.2622 9.1332 -0.2754 21.0650 -27.8094 19.7989 18.6462 8.4513 -2.3594 -21.9538 34.7116 -56.6190 -118.8902 -0.0000 -3.2013 2.8167 -6.1014 24.8386 33.1476 -0.0000 26.2537 12.5491 -20.9762 7.5903 -2.5805 1.9526 73.0976 31.5352 -0.0000 33.0232 -0.5511 3.0970 10.0949 32.8623 0.0000 -24.3270 13.7252 20.0051 -11.8673 -1.1539 0.0000 -0.0000 -19.3859 26.5413 7.7190 18.5153 -0.0000 -0.0000 -74.3052 -22.9921 -36.9244 89.8056 -0.0000 0.0000 30.6006 -36.6002 -9.4712 19.3803 0.0000 -0.0000
 -3.9684 35.1854 -13.8702 -10.0389 -19.5822 -6.7064 8.2109 9.2012 -0.1385 21.0391 -27.7183 19.7239 18.6670 8.4319 -2.4255 -22.0689 35.1484 -56.5452 -118.8027 -0.0000 -4.6183 3.1653 -7.3077 23.4976 33.1476 -0.0000 26.2537 12.5240 -20.9711 7.5752 -2.6271 1.5132 73.0331 31.5544 -0.0000 32.9976 -0.5447 3.0829 10.0252 32.8623 0.0000 -24.3270 13.7132 20.0937 -11.8530 -1.1026 0.0000 -0.0000 -19.4101 26.4807 7.6386 18.4818 0.0000 0.0000 -74.5117 -23.0575 -37.4120 89.8531 0.0000 0.0000 30.7891 -36.9240 -9.1410 19.5072 0.0000 0.0000
 -3.9524 35.1849 -13.8522 -10.0503 -19.5344 -6.7358 8.1946 9.2611 -0.0208 21.0028 -27.6269 19.6591 18.6648 8.4421 -2.4923 -22.0447 35.3051 -56.5508 -118.8106 -0.0000 -4.6695 3.2386 -7.4667 23.5301 33.1476 -0.0000 26.2537 12.5081 -20.9455 7.5599 -2.6976 0.9921 72.9815 31.5806 -0.0000 33.0007 -0.5458 3.0772 10.0635 32.8623 0.0000 -24.3270 13.7206 20.1366 -11.8441 -1.0282 0.0000 -0.0000 -19.4421 26.4474 7.5592 18.4123 -0.0000 0.0000 -74.6977 -23.0864 -37.9371 89.9212 0.0000 0.0000 30.9970 -37.2131 -8.8334 19.4554 -0.0000 0.0000
 -3.9352 35.1842 -13.8344 -10.0346 -19.4731 -6.7594 8.1498 9.2933 0.1072 20.9667 -27.5449 19.5703 18.6769 8.4653 -2.5836 -22.0145 35.4106 -56.5567 -118.8890 -0.0000 -4.4957 3.1554 -7.1359 23.9307 33.1476 -0.0000 26.2537 12.4382 -20.9231 7.5023 -2.7331 0.5121 72.9426 31.5457 -0.0000 32.9942 -0.5471 3.1009 10.0118 32.8623 0.0000 -24.3270 13.6886 20.1534 -11.8228 -0.9406 -0.0000 -0.0000 -19.4972 26.3984 7.4840 18.4604 0.0000 -0.0000 -74.9337 -23.1418 -38.5163 89.9968 0.0000 0.0000 31.0929 -37.5190 -8.5939 19.4596 0.0000 0.0000
 -3.9182 35.1829 -13.8150 -10.0110 -19.4052 -6.7627 8.0992 9.3343 0.2136 20.9405 -27.4727 19.5094 18.6744 8.4817 -2.6813 -22.0187 35.5964 -56.5366 -118.9424 -0.0000 -4.3606 3.1171 -7.0842 23.8247 33.1476 -0.0000 26.2537 12.3476 -20.9366 7.4526 -2.7083 0.1513 72.8677 31.5365 -0.0000 32.9452 -0.5327 3.0428 9.9346 32.8623 0.0000 -24.3270 13.6888 20.2377 -11.8299 -0.8790 -0.0000 -0.0000 -19.5087 26.2901 7.3509 18.4204 -0.0000 0.0000 -75.1598 -23.1315 -39.1066 90.0995 0.0000 -0.0000 31.2328 -37.5553 -8.5705 19.4341 -0.0000 0.0000
 -3.8981 35.1800 -13.7957 -9.9705 -19.3409 -6.7349 8.0361 9.3859 0.2937 20.9280 -27.4025 19.4617 18.6937 8.5190 -2.8025 -22.0482 35.6440 -56.4936 -119.0334 -0.0000 -4.0290 2.9755 -6.5969 24.3445 33.1476 -0.0000 26.2537 12.2660 -20.9492 7.3908 -2.7160 -0.2337 72.8132 31.4731 -0.0000 32.9074 -0.5151 2.9734 9.8324 32.8623 0.0000 -24.3270 13.6464 20.2594 -11.8548 -0.7695 0.0000 -0.0000 -19.5473 26.2313 7.1991 18.4120 -0.0000 -0.0000 -75.4252 -23.1031 -39.7099 90.1796 0.0000 -0.0000 31.3376 -37.7862 -8.4632 19.5744 0.0000 -0.0000
 -3.8791 35.1760 -13.7784 -9.9301 -19.3094 -6.6899 7.9823 9.4983 0.3482 20.8911 -27.3649 19.4002 18.6741 8.5047 -2.8740 -22.0998 35.9327 -56.4998 -119.0849 -0.0000 -4.0335 2.9369 -6.5426 24.2397 33.1476 -0.0000 26.2537 12.1776 -20.9295 7.3126 -2.7140 -0.7369 72.7947 31.4235 -0.0000 32.9516 -0.5087 2.9642 9.7420 32.8623 0.0000 -24.3270 13.6389 20.3774 -11.9098 -0.6846 -0.0000 0.0000 -19.5533 26.0969 6.9862 18.3574 -0.0000 0.0000 -75.6964 -23.0460 -40.2939 90.2601 -0.0000 -0.0000 31.4232 -38.0047 -8.3061 19.4284 -0.0000 -0.0000
